<?xml version="1.0" encoding="UTF-8" standalone="no"?>
<svg
   xmlns:dc="http://purl.org/dc/elements/1.1/"
   xmlns:cc="http://creativecommons.org/ns#"
   xmlns:rdf="http://www.w3.org/1999/02/22-rdf-syntax-ns#"
   xmlns:svg="http://www.w3.org/2000/svg"
   xmlns="http://www.w3.org/2000/svg"
   xmlns:sodipodi="http://sodipodi.sourceforge.net/DTD/sodipodi-0.dtd"
   xmlns:inkscape="http://www.inkscape.org/namespaces/inkscape"
   version="1.1"
   id="svg2"
   xml:space="preserve"
   width="493.33334"
   height="133.84"
   viewBox="0 0 493.33334 133.84"
   sodipodi:docname="netflix-seeklogo.com.eps"><metadata
     id="metadata8"><rdf:RDF><cc:Work
         rdf:about=""><dc:format>image/svg+xml</dc:format><dc:type
           rdf:resource="http://purl.org/dc/dcmitype/StillImage" /></cc:Work></rdf:RDF></metadata><defs
     id="defs6" /><sodipodi:namedview
     pagecolor="#ffffff"
     bordercolor="#666666"
     borderopacity="1"
     objecttolerance="10"
     gridtolerance="10"
     guidetolerance="10"
     inkscape:pageopacity="0"
     inkscape:pageshadow="2"
     inkscape:window-width="640"
     inkscape:window-height="480"
     id="namedview4" /><g
     id="g10"
     inkscape:groupmode="layer"
     inkscape:label="ink_ext_XXXXXX"
     transform="matrix(1.3333333,0,0,-1.3333333,0,133.84)"><g
       id="g12"
       transform="scale(0.1)"><path
         d="M 3158.45,63.8125 C 3210,58.832 3261.47,53.457 3312.86,47.8867 L 3426.3,328.016 3534.14,22.0742 C 3589.49,15.1328 3644.77,7.875 3699.92,0.261719 L 3510.88,536.789 3700,1003.76 h -160.17 l -1.65,-2.27 -102.15,-252.279 -89.67,254.549 H 3188.23 L 3351.5,540.477 3158.45,63.8125"
         style="fill:#b81e25;fill-opacity:1;fill-rule:nonzero;stroke:none"
         id="path14" /><path
         d="M 3038.83,74.7773 V 1003.74 H 2880.74 V 87.8008 c 52.76,-4.0391 105.48,-8.4336 158.09,-13.0235"
         style="fill:#b81e25;fill-opacity:1;fill-rule:nonzero;stroke:none"
         id="path16" /><path
         d="m 1851.4,126.742 c 42.68,0 85.28,-0.312 127.85,-0.668 v 341.285 h 189.9 v 145.34 h -189.9 V 858.27 h 218.69 v 145.5 H 1820.53 V 126.625 c 10.28,0 20.55,0.125 30.87,0.125"
         style="fill:#b81e25;fill-opacity:1;fill-rule:nonzero;stroke:none"
         id="path18" /><path
         d="m 1360.59,117.863 c 52.65,1.883 105.37,3.45 158.17,4.746 v 735.649 h 147.73 V 1003.75 H 1212.82 V 858.258 h 147.77 v -740.399 0.004"
         style="fill:#b81e25;fill-opacity:1;fill-rule:nonzero;stroke:none"
         id="path20" /><path
         d="M 151.656,19.8906 V 573.359 L 338.813,42.25 c 57.546,6.4688 115.214,12.5508 173,18.2773 V 1003.73 H 360.152 V 430.449 L 158.168,1003.73 H 151.656 0 V 0 H 0.941406 C 51.0742,6.94141 101.328,13.5313 151.656,19.8867"
         style="fill:#b81e25;fill-opacity:1;fill-rule:nonzero;stroke:none"
         id="path22" /><path
         d="M 1060.42,858.266 V 1003.77 H 682.969 V 76.2813 C 808.223,87.1055 933.91,96.168 1060.11,103.547 v 0.125 41.933 103.563 C 987.141,244.934 914.336,240.027 841.684,234.617 V 467.316 H 1031.59 V 612.734 H 841.684 v 245.532 h 218.736 v 0"
         style="fill:#b81e25;fill-opacity:1;fill-rule:nonzero;stroke:none"
         id="path24" /><path
         d="M 2511.25,256.117 V 1003.77 H 2352.49 V 117.328 c 126.28,-4.629 252.08,-11.101 377.46,-19.2186 v 0.1875 46.9961 98.5 c -72.77,4.707 -145.66,8.789 -218.7,12.316"
         style="fill:#b81e25;fill-opacity:1;fill-rule:nonzero;stroke:none"
         id="path26" /></g></g></svg>
